HIERARCHY
ROOT reference
{
  OFFSET -65.3212 -1.93545 -120.338
  CHANNELS 6 Xposition Yposition Zposition Zrotation Xrotation Yrotation
  JOINT Hips
  {
    OFFSET 0 78.7191 0
    CHANNELS 3 Zrotation Xrotation Yrotation
    JOINT Chest
    {
      OFFSET 0 8.7983 -4.7612
      CHANNELS 3 Zrotation Xrotation Yrotation
      JOINT Chest2
      {
        OFFSET 0 8.0291 0.4195
        CHANNELS 3 Zrotation Xrotation Yrotation
        JOINT Chest3
        {
          OFFSET 0 9.9351 -2.2114
          CHANNELS 3 Zrotation Xrotation Yrotation
          JOINT Neck
          {
            OFFSET 0 22.3885 -0.4656
            CHANNELS 3 Zrotation Xrotation Yrotation
            JOINT Head
            {
              OFFSET -0.0001 12.643 3.4389
              CHANNELS 3 Zrotation Xrotation Yrotation
              End Site
              {
                OFFSET 0.0001 17.6655 0.5274
              }
            }
          }
          JOINT LeftCollar
          {
            OFFSET 2.2603 21.606 7.4023
            CHANNELS 3 Zrotation Xrotation Yrotation
            JOINT LeftShoulder
            {
              OFFSET 13.5163 -1.1332 -5.0146
              CHANNELS 3 Zrotation Xrotation Yrotation
              JOINT LeftElbow
              {
                OFFSET -0.0995 -28.05 -0.2431
                CHANNELS 3 Zrotation Xrotation Yrotation
                JOINT LeftWrist
                {
                  OFFSET 0.0679 -23.3996 -0.1402
                  CHANNELS 3 Zrotation Xrotation Yrotation
                  JOINT LeftFinger1
                  {
                    OFFSET 0.7932 -9.069 2.5189
                    CHANNELS 3 Zrotation Xrotation Yrotation
                    JOINT LeftFinger11
                    {
                      OFFSET -0.8272 -3.3923 0.5977
                      CHANNELS 3 Zrotation Xrotation Yrotation
                      JOINT LeftFinger12
                      {
                        OFFSET -0.5649 -2.3158 0.4082
                        CHANNELS 3 Zrotation Xrotation Yrotation
                        End Site
                        {
                          OFFSET -0.4919 -1.6479 0.2673
                        }
                      }
                    }
                  }
                  JOINT LeftFinger2
                  {
                    OFFSET 0.9159 -9.2044 0.2193
                    CHANNELS 3 Zrotation Xrotation Yrotation
                    JOINT LeftFinger21
                    {
                      OFFSET 0.0117 -4.1944 -0.0248
                      CHANNELS 3 Zrotation Xrotation Yrotation
                      JOINT LeftFinger22
                      {
                        OFFSET 0.0071 -2.3249 -0.0142
                        CHANNELS 3 Zrotation Xrotation Yrotation
                        End Site
                        {
                          OFFSET -0.1475 -2.0882 0.0028
                        }
                      }
                    }
                  }
                  JOINT LeftFinger3
                  {
                    OFFSET 0.6113 -8.7231 -2.0637
                    CHANNELS 3 Zrotation Xrotation Yrotation
                    JOINT LeftFinger31
                    {
                      OFFSET -0.1927 -3.8059 -0.2383
                      CHANNELS 3 Zrotation Xrotation Yrotation
                      JOINT LeftFinger32
                      {
                        OFFSET -0.1091 -2.1688 -0.1362
                        CHANNELS 3 Zrotation Xrotation Yrotation
                        End Site
                        {
                          OFFSET -0.2358 -1.9176 -0.0906
                        }
                      }
                    }
                  }
                  JOINT LeftFinger4
                  {
                    OFFSET -0.6151 -8.0947 -3.5641
                    CHANNELS 3 Zrotation Xrotation Yrotation
                    JOINT LeftFinger41
                    {
                      OFFSET -0.4882 -2.341 -0.6462
                      CHANNELS 3 Zrotation Xrotation Yrotation
                      JOINT LeftFinger42
                      {
                        OFFSET -0.3575 -1.7167 -0.4742
                        CHANNELS 3 Zrotation Xrotation Yrotation
                        End Site
                        {
                          OFFSET -0.4187 -1.5237 -0.3496
                        }
                      }
                    }
                  }
                  JOINT LeftFinger0
                  {
                    OFFSET -1.42 -1.8761 1.4223
                    CHANNELS 3 Zrotation Xrotation Yrotation
                    JOINT LeftFinger01
                    {
                      OFFSET -1.1471 -3.4929 2.6334
                      CHANNELS 3 Zrotation Xrotation Yrotation
                      JOINT LeftFinger02
                      {
                        OFFSET -0.823 -2.3 1.6571
                        CHANNELS 3 Zrotation Xrotation Yrotation
                        End Site
                        {
                          OFFSET -0.5822 -1.6914 1.1582
                        }
                      }
                    }
                  }
                }
              }
            }
          }
          JOINT RightCollar
          {
            OFFSET -2.2603 21.606 7.4023
            CHANNELS 3 Zrotation Xrotation Yrotation
            JOINT RightShoulder
            {
              OFFSET -13.5187 -1.1334 -5.0155
              CHANNELS 3 Zrotation Xrotation Yrotation
              JOINT RightElbow
              {
                OFFSET 0.0994 -28.0499 -0.2431
                CHANNELS 3 Zrotation Xrotation Yrotation
                JOINT RightWrist
                {
                  OFFSET -0.0679 -23.3996 -0.1402
                  CHANNELS 3 Zrotation Xrotation Yrotation
                  JOINT RightFinger1
                  {
                    OFFSET -0.7932 -9.0691 2.5189
                    CHANNELS 3 Zrotation Xrotation Yrotation
                    JOINT RightFinger11
                    {
                      OFFSET 0.8272 -3.3923 0.5977
                      CHANNELS 3 Zrotation Xrotation Yrotation
                      JOINT RightFinger12
                      {
                        OFFSET 0.565 -2.3158 0.4082
                        CHANNELS 3 Zrotation Xrotation Yrotation
                        End Site
                        {
                          OFFSET 0.4919 -1.6479 0.2673
                        }
                      }
                    }
                  }
                  JOINT RightFinger2
                  {
                    OFFSET -0.916 -9.2044 0.2193
                    CHANNELS 3 Zrotation Xrotation Yrotation
                    JOINT RightFinger21
                    {
                      OFFSET -0.0117 -4.1944 -0.0248
                      CHANNELS 3 Zrotation Xrotation Yrotation
                      JOINT RightFinger22
                      {
                        OFFSET -0.0071 -2.3249 -0.0142
                        CHANNELS 3 Zrotation Xrotation Yrotation
                        End Site
                        {
                          OFFSET 0.1475 -2.0882 0.0028
                        }
                      }
                    }
                  }
                  JOINT RightFinger3
                  {
                    OFFSET -0.6113 -8.7231 -2.0637
                    CHANNELS 3 Zrotation Xrotation Yrotation
                    JOINT RightFinger31
                    {
                      OFFSET 0.1927 -3.8059 -0.2383
                      CHANNELS 3 Zrotation Xrotation Yrotation
                      JOINT RightFinger32
                      {
                        OFFSET 0.1091 -2.1688 -0.1362
                        CHANNELS 3 Zrotation Xrotation Yrotation
                        End Site
                        {
                          OFFSET 0.2358 -1.9176 -0.0906
                        }
                      }
                    }
                  }
                  JOINT RightFinger4
                  {
                    OFFSET 0.6151 -8.0947 -3.564
                    CHANNELS 3 Zrotation Xrotation Yrotation
                    JOINT RightFinger41
                    {
                      OFFSET 0.4882 -2.341 -0.6462
                      CHANNELS 3 Zrotation Xrotation Yrotation
                      JOINT RightFinger42
                      {
                        OFFSET 0.3574 -1.7166 -0.4742
                        CHANNELS 3 Zrotation Xrotation Yrotation
                        End Site
                        {
                          OFFSET 0.4187 -1.5237 -0.3496
                        }
                      }
                    }
                  }
                  JOINT RightFinger0
                  {
                    OFFSET 1.4199 -1.8761 1.4221
                    CHANNELS 3 Zrotation Xrotation Yrotation
                    JOINT RightFinger01
                    {
                      OFFSET 1.1472 -3.4929 2.6336
                      CHANNELS 3 Zrotation Xrotation Yrotation
                      JOINT RightFinger02
                      {
                        OFFSET 0.8229 -2.3 1.6571
                        CHANNELS 3 Zrotation Xrotation Yrotation
                        End Site
                        {
                          OFFSET 0.5822 -1.6914 1.1582
                        }
                      }
                    }
                  }
                }
              }
            }
          }
        }
      }
    }
    JOINT RightHip
    {
      OFFSET -9.412 3.9771 -0.7758
      CHANNELS 3 Zrotation Xrotation Yrotation
      JOINT RightKnee
      {
        OFFSET -0.7531 -40.938 0
        CHANNELS 3 Zrotation Xrotation Yrotation
        JOINT RightAnkle
        {
          OFFSET 0 -40.1986 0
          CHANNELS 3 Zrotation Xrotation Yrotation
          JOINT RightToe
          {
            OFFSET 0 -4.4182 9.239
            CHANNELS 3 Zrotation Xrotation Yrotation
            End Site
            {
              OFFSET 0 0 6.1981
            }
          }
        }
      }
    }
    JOINT LeftHip
    {
      OFFSET 9.4119 3.9773 -0.7758
      CHANNELS 3 Zrotation Xrotation Yrotation
      JOINT LeftKnee
      {
        OFFSET 0.7532 -40.9383 0
        CHANNELS 3 Zrotation Xrotation Yrotation
        JOINT LeftAnkle
        {
          OFFSET 0 -40.1986 0
          CHANNELS 3 Zrotation Xrotation Yrotation
          JOINT LeftToe
          {
            OFFSET 0 -4.4182 9.239
            CHANNELS 3 Zrotation Xrotation Yrotation
            End Site
            {
              OFFSET 0 0 6.1981
            }
          }
        }
      }
    }
  }
}
MOTION
Frames:	6
Frame Time:	0.0333333
-38.2952 -3.48887 -49.628 0 0 -0 -0.629987 6.11145 101.885 0.00562735 -2.15305 1.02201 0.0497643 -4.30564 2.04638 0.0497672 -4.30565 2.0464 -0.568413 13.6127 -8.57849 -6.32863 -1.1007 -8.81008 0.496454 0.856154 -4.26281 4.0636 31.657 27.2185 -10.3713 -22.1165 -10.3199 -12.0597 1.41048 41.7653 -3.94529e-005 0.000169978 0.000155417 0.000324227 -4.95054e-005 -0.000233719 -0.000163997 5.81084e-005 2.3923e-005 2.03447 -1.26687 0.222426 -0.16786 -0.876184 0.19608 2.03555 -1.26785 0.222671 2.14486 -6.29389 2.63956 -0.361925 -2.21293 0.750578 4.5101 -3.05779 0.715173 11.4153 -7.35225 2.60521 -0.0649134 -1.73708 1.50188 2.78866 -1.86625 0.506477 0.000209881 2.51119e-006 -0.000397583 -0.000172427 1.10707e-005 0.000280869 -0.000170222 5.51471e-005 1.44588e-005 -44.4594 -1.12556 12.6019 -93.0996 9.48618 -52.0672 -3.48069 -25.7826 -35.2472 5.24749 6.54723 -23.1117 -26.3168 9.86706 9.08438 39.4242 12.0338 -4.97715 38.7304 11.8651 -4.82269 -2.23351 10.2523 5.03866 52.3753 15.6205 -6.40199 44.0892 13.7161 -4.48628 15.0073 7.58699 -5.70557 37.2884 13.8497 -2.53198 38.5715 14.2637 -2.77358 23.054 4.37547 -8.90254 30.7449 11.5431 -0.515151 30.6849 11.5225 -0.506238 7.91156 0.880281 52.6243 -0.671221 1.52911 0.489015 -4.02431 8.6295 3.04557 -4.12667 -16.8147 45.6069 14.7218 47.003 -7.84806 -14.3971 -3.17313 -22.4251 25.2849 -3.25469 -8.10981 -22.6692 3.30514 -2.02869 0.440615 -0.000229873 0.623378 8.93722 -2.41454 -5.452 5.77032 5.01454 -0.811583 
-38.433 -3.53931 -49.7197 0 0 -0 -1.15986 6.36775 102.442 -0.198784 -2.11726 0.917569 -0.363954 -4.23744 1.82963 -0.363955 -4.23744 1.82965 -0.317987 13.3452 -9.47569 -6.57371 -1.10547 -9.67001 0.954135 0.826059 -4.5882 4.25144 31.531 26.92 -10.196 -20.992 -10.7925 -12.8748 3.16744 39.1866 -0.343428 0.459687 -0.0924552 -0.253746 0.15801 -0.0135171 -0.313869 0.195211 -0.0162654 1.71753 -1.02632 0.103702 -0.136228 -0.69495 0.15883 1.72591 -1.07578 0.185943 1.83155 -5.99352 2.55441 -0.327053 -1.97839 0.681972 4.14409 -2.81302 0.648434 10.8267 -7.05123 2.46963 -0.060828 -1.55706 1.35714 2.46601 -1.65221 0.443385 0.134757 0.308713 -0.0773836 -0.0380386 -0.0502002 0.010697 0.0850021 0.112971 -0.0235715 -44.8467 -1.10637 12.5504 -91.7649 10.66 -51.4817 -3.93987 -26.0945 -35.7532 5.64518 6.21292 -24.1402 -26.3168 9.86706 9.08438 39.4242 12.0338 -4.97715 38.7304 11.8651 -4.82266 -2.23351 10.2523 5.03867 52.3753 15.6205 -6.40199 44.0892 13.7161 -4.48627 15.0073 7.58701 -5.70557 37.2884 13.8497 -2.53196 38.5715 14.2637 -2.7736 23.054 4.37546 -8.90254 30.7457 11.5434 -0.515084 30.6849 11.5225 -0.506226 7.91155 0.880272 52.6243 -0.671242 1.52911 0.489012 -4.0243 8.6295 3.04557 -4.4624 -17.51 45.5209 15.2834 47.6232 -8.37469 -13.8356 -3.07494 -22.4664 24.944 -2.84041 -8.15427 -23.0612 2.9778 -2.64908 0.421903 -0.0487461 0.498758 8.59041 -2.42297 -5.07932 5.74298 5.23159 -0.833293 
-38.5217 -3.58465 -49.7356 0 0 -0 -1.65439 6.65167 102.772 -0.410094 -2.07932 0.90169 -0.788148 -4.1648 1.79018 -0.78815 -4.16479 1.79018 0.300497 13.5129 -10.0009 -6.99847 -1.34304 -10.3444 1.3683 0.792556 -4.93793 4.25618 31.9479 26.8627 -9.90786 -20.2107 -11.751 -13.3496 4.22085 38.4413 -1.27397 1.70718 -0.339914 -0.943229 0.58732 -0.0460494 -1.16504 0.72533 -0.0551134 0.858353 -0.372443 -0.213216 -0.0499033 -0.204671 0.0497972 0.886334 -0.553559 0.0915048 0.997679 -5.18515 2.33323 -0.231019 -1.34527 0.48438 3.1524 -2.14658 0.475238 9.23486 -6.22584 2.12063 -0.0484981 -1.07398 0.957492 1.59552 -1.07406 0.284673 0.473775 1.07966 -0.271301 -0.140704 -0.18654 0.0388505 0.316411 0.41935 -0.0884311 -44.9954 -1.08763 12.2225 -90.8428 11.7486 -50.4344 -4.2386 -26.3072 -35.4304 6.05848 5.75388 -26.1829 -26.3168 9.86702 9.08438 39.4242 12.0338 -4.97716 38.7304 11.8651 -4.82267 -2.2335 10.2523 5.03866 52.3753 15.6205 -6.40198 44.0892 13.7161 -4.48628 15.0073 7.58701 -5.70557 37.2884 13.8497 -2.53198 38.5715 14.2637 -2.77356 23.054 4.37547 -8.90255 30.7466 11.5438 -0.515036 30.685 11.5225 -0.506232 7.91157 0.880266 52.6243 -0.671236 1.52911 0.489019 -4.02432 8.62951 3.04558 -4.43746 -18.0648 46.3116 15.8448 48.3533 -9.02087 -13.0741 -2.7679 -22.624 23.986 -1.95923 -8.12466 -23.3936 2.57434 -1.98801 0.38358 0.0157587 0.297122 8.36619 -2.51088 -5.99968 5.7532 5.14675 -0.823945 
-38.6488 -3.63042 -49.7145 0 0 -0 -2.20176 7.07154 103.596 -0.6606 -2.00993 0.891353 -1.29101 -4.02977 1.76106 -1.29101 -4.02977 1.76107 1.04479 13.7309 -10.4856 -7.38263 -1.45339 -10.5884 1.76471 0.75442 -5.31799 4.29751 32.4238 26.8618 -9.48665 -19.6359 -12.43 -13.789 5.24436 38.3143 -2.64196 3.54577 -0.694229 -1.95903 1.22061 -0.0845487 -2.41901 1.50744 -0.0979785 -0.405714 0.593667 -0.665954 -1.18957 0.745667 -0.109437 -0.349389 0.218453 -0.0336929 -0.220445 -3.98447 2.01769 -0.0857155 -0.42238 0.162922 1.6953 -1.15927 0.241212 6.90375 -4.98877 1.6571 -0.0267297 -0.377427 0.35057 0.309782 -0.210877 0.0576224 0.921126 2.09204 -0.528094 -0.291939 -0.387589 0.0798746 0.658085 0.870334 -0.186229 -45.1022 -1.04219 11.7746 -89.9868 13.3351 -49.0401 -4.6997 -26.8174 -35.1552 6.51674 5.50746 -28.4181 -26.3168 9.86705 9.0844 39.4242 12.0338 -4.97713 38.7303 11.8651 -4.82265 -2.2335 10.2523 5.03867 52.3753 15.6205 -6.40196 44.0892 13.7161 -4.48627 15.0074 7.58701 -5.70557 37.2883 13.8496 -2.53194 38.5715 14.2637 -2.77357 23.054 4.37546 -8.90255 30.7474 11.5442 -0.514953 30.6849 11.5225 -0.506205 7.91155 0.880275 52.6243 -0.671237 1.52909 0.489023 -4.0243 8.62949 3.04557 -4.67399 -18.6954 46.4962 16.592 49.2766 -9.8816 -12.2395 -2.7641 -22.5568 22.6388 -0.732052 -8.03578 -23.8449 2.30543 -1.89474 0.336549 -0.0202615 0.0479616 8.03197 -2.45646 -6.51337 5.76806 5.02347 -0.810259 
-38.756 -3.65865 -49.6402 0 0 -0 -2.7557 7.55467 104.529 -0.937998 -1.93255 0.895785 -1.84722 -3.87929 1.76131 -1.84723 -3.8793 1.76128 2.00796 14.4627 -10.7768 -7.58457 -1.61334 -10.6124 2.13637 0.70863 -5.75704 4.37009 33.0922 26.8045 -9.00683 -19.1112 -13.4808 -14.2694 5.59346 39.5024 -4.29956 5.77786 -1.10806 -3.19233 1.99039 -0.116221 -3.92696 2.44728 -0.125976 -1.9381 1.77024 -1.19279 -3.21547 2.02158 -0.26027 -1.84789 1.15922 -0.163324 -1.6833 -2.51213 1.65045 -1.40188 0.966279 -0.173948 -0.0683203 0.0471212 -0.00905196 4.09391 -3.45672 1.17585 -1.04751 0.709803 -0.167439 -1.25103 0.848505 -0.198485 1.46506 3.30901 -0.841555 -0.475338 -0.631799 0.128976 1.07408 1.41716 -0.30866 -45.1652 -0.9726 11.1854 -89.127 14.902 -47.4861 -5.23228 -27.4306 -34.8339 6.91005 5.31782 -30.7841 -26.3168 9.86703 9.08441 39.4242 12.0338 -4.97711 38.7304 11.8651 -4.82268 -2.2335 10.2523 5.03868 52.3753 15.6205 -6.40194 44.0892 13.7161 -4.48624 15.0073 7.58703 -5.70556 37.2883 13.8497 -2.53189 38.5715 14.2637 -2.77352 23.054 4.37548 -8.90252 30.7483 11.5445 -0.514891 30.6849 11.5225 -0.506173 7.91154 0.880268 52.6244 -0.671232 1.52909 0.48903 -4.02431 8.6295 3.04558 -4.84233 -19.3179 46.7983 17.3716 50.4009 -10.845 -11.1283 -2.55447 -22.1395 20.8773 0.78461 -7.81528 -24.2617 2.1247 -2.13896 0.283741 -0.000572039 -0.194048 8.07838 -2.28333 -7.19734 5.7455 5.19739 -0.82641 
-38.8253 -3.66403 -49.5244 0 0 -0 -3.33781 8.04095 105.524 -1.22833 -1.85109 0.923856 -2.42854 -3.72134 1.80921 -2.42854 -3.72135 1.80919 3.08649 15.544 -11.0246 -7.53964 -1.74484 -10.3196 2.47889 0.655103 -6.26298 4.39046 33.9096 26.8179 -8.40603 -18.708 -14.5669 -14.4817 5.55877 41.7111 -6.10605 8.19731 -1.56483 -4.53476 2.82863 -0.131844 -5.59239 3.48774 -0.129526 -3.60833 3.04796 -1.74103 -5.41871 3.41515 -0.373173 -3.47788 2.19187 -0.283553 -3.25432 -0.890278 1.26775 -3.87186 2.68154 -0.42339 -1.98208 1.36805 -0.239148 1.05933 -1.75303 0.761829 -3.1509 2.1476 -0.465009 -2.94534 2.00831 -0.443258 2.08086 4.66195 -1.19592 -0.637743 -0.777954 0.166139 1.52826 2.0112 -0.446427 -45.1789 -0.884369 10.4463 -88.3109 16.4727 -45.8507 -5.77872 -28.0787 -34.4873 7.28274 5.14265 -33.166 -26.3168 9.86705 9.08443 39.4242 12.0338 -4.97706 38.7303 11.8651 -4.82262 -2.23352 10.2523 5.03871 52.3753 15.6206 -6.40187 44.0892 13.7161 -4.4862 15.0073 7.58703 -5.70552 37.2883 13.8497 -2.53182 38.5715 14.2637 -2.77344 23.054 4.37549 -8.90248 30.7491 11.5449 -0.514829 30.6849 11.5224 -0.506153 7.91156 0.880326 52.6245 -0.671271 1.52908 0.48905 -4.02432 8.62949 3.04561 -4.81207 -19.8988 47.2938 18.0622 51.693 -11.8211 -9.63032 -2.29087 -21.8003 18.7595 2.43448 -7.39876 -24.6698 1.90612 -2.02776 0.216662 0.113811 -0.499227 7.99715 -2.16511 -8.08397 5.74887 5.16371 -0.821308 
